# xmcd
#
# Track frame offsets: 
#        150
#        19552
#        38639
#        60030
#        82650
#        104588
#        122533
#        140416
#        156545
#        174521
#        195662
#        213103
#        232003
#
# Disc length: 3411 seconds
#
# Revision: 0
# Processed by: cddbd v1.5.2PL0 Copyright (c) Steve Scherf et al.
# Submitted via: ExactAudioCopy v1.3
#
DISCID=9d0d510d
DTITLE=CHELY WRIGHT - I AM THE RAIN
DYEAR=2016
DGENRE=Country
TTITLE0=CHELY WRIGHT MUSICIANS - INSIDE
TTITLE1=CHELY WRIGHT MUSICIANS WITH Jeremy Lister - WHERE WILL YOU BE
TTITLE2=CHELY WRIGHT MUSICIANS - AT THE HEART OF ME
TTITLE3=CHELY WRIGHT MUSICIANS - YOU ARE THE RIVER
TTITLE4=CHELY WRIGHT MUSICIANS - HOLY WAR
TTITLE5=CHELY WRIGHT MUSICIANS WITH Jedd Hughes Jeremy Lister - WHAT A
TTITLE5=BOUT YOUR HEART
TTITLE6=CHELY WRIGHT MUSICIANS - PAIN
TTITLE7=CHELY WRIGHT MUSICIANS - TOMORROW IS A LONG TIME
TTITLE8=CHELY WRIGHT MUSICIANS - BLOOD AND BONES AND SKIN
TTITLE9=CHELY WRIGHT MUSICIANS WITH Jeremy Lister - MEXICO
TTITLE10=CHELY WRIGHT MUSICIANS - NEXT TO ME
TTITLE11=CHELY WRIGHT MUSICIANS - HALONA
TTITLE12=CHELY WRIGHT MUSICIANS - SEE ME HOME
EXTD=
EXTT0=
EXTT1=
EXTT2=
EXTT3=
EXTT4=
EXTT5=
EXTT6=
EXTT7=
EXTT8=
EXTT9=
EXTT10=
EXTT11=
EXTT12=
PLAYORDER=
